:FULLY-SPECIFIED
:FORCE-ALL-JOINTS-BE-3DOF
:DEGREES
747
root 4.14984 19.9247 12.063 9.2764 -58.9562 132.074
lfemur -42.2378 -6.56612 9.41147
ltibia 74.1862 0 0
lfoot 0.489368 -5.219 0
ltoes 27.9114 0 0
rfemur -15.4715 1.57762 9.07096
rtibia 43.7163 0 0
rfoot 1.85579 -16.5637 0
rtoes 10.9536 0 0
lowerback 4.73041 1.32565 1.11923
upperback -0.90084 1.65423 -1.5232
thorax -3.35135 0.843157 -2.11898
lowerneck -6.42585 -3.77241 -0.00988489
upperneck -1.41864 -5.04457 3.33015
head 0.768458 -2.51155 0.937174
lclavicle -3.93803e-14 -4.30874e-15 0
lhumerus -10.8009 -13.4361 34.9583
lradius 54.468 0 0
lwrist 26.2853 0 0
lhand -20.4412 -1.14825 0
lfingers 7.12502 0 0
lthumb 5.95425 29.1502 0
rclavicle -3.93803e-14 -4.30874e-15 0
rhumerus -24.3193 11.1909 -51.306
rradius 84.6582 0 0
rwrist -1.36324 0 0
rhand -27.7309 -37.5998 0
rfingers 7.12502 0 0
rthumb -1.12541 -787.461 0
748
root 4.10155 19.8701 12.2253 9.20487 -57.7913 136.257
lfemur -42.3063 -6.48306 9.16099
ltibia 73.4588 0 0
lfoot 0.283029 -5.12997 0
ltoes 27.688 0 0
rfemur -15.2099 1.62051 9.34026
rtibia 43.3806 0 0
rfoot 1.31739 -16.4482 0
rtoes 10.2957 0 0
lowerback 4.6825 1.40852 1.21096
upperback -0.883731 1.76929 -1.50678
thorax -3.2975 0.900204 -2.15714
lowerneck -6.41762 -3.72861 0.0427471
upperneck -1.44608 -4.98775 3.28658
head 0.754257 -2.48389 0.916828
lclavicle -4.03974e-14 -4.42966e-15 0
lhumerus -11.5848 -13.2504 35.9287
lradius 54.5231 0 0
lwrist 26.227 0 0
lhand -20.4206 -1.08901 0
lfingers 7.12502 0 0
lthumb 5.97554 29.2224 0
rclavicle -4.03974e-14 -4.42966e-15 0
rhumerus -24.4633 11.8677 -52.4568
rradius 84.224 0 0
rwrist -1.25342 0 0
rhand -27.5385 -37.4713 0
rfingers 7.12502 0 0
rthumb -0.93958 -787.332 0
749
root 4.05305 19.8149 12.3879 9.1319 -56.6094 140.461
lfemur -42.373 -6.39686 8.90649
ltibia 72.7243 0 0
lfoot 0.0729721 -5.03877 0
ltoes 27.4615 0 0
rfemur -14.9494 1.66211 9.61212
rtibia 43.0439 0 0
rfoot 0.776357 -16.3288 0
rtoes 9.6329 0 0
lowerback 4.63418 1.49155 1.30268
upperback -0.866396 1.88458 -1.49011
thorax -3.24312 0.957366 -2.19506
lowerneck -6.40943 -3.68507 0.0955509
upperneck -1.47245 -4.93137 3.24297
head 0.7404 -2.45641 0.896375
lclavicle -4.14208e-14 -4.55127e-15 0
lhumerus -12.3752 -13.0658 36.9105
lradius 54.5787 0 0
lwrist 26.1677 0 0
lhand -20.3981 -1.02891 0
lfingers 7.12502 0 0
lthumb 5.99864 29.2953 0
rclavicle -4.14208e-14 -4.55127e-15 0
rhumerus -24.6055 12.5485 -53.6172
rradius 83.7906 0 0
rwrist -1.14699 0 0
rhand -27.3444 -37.3404 0
rfingers 7.12502 0 0
rthumb -0.75208 -787.201 0
750
root 4.00438 19.7591 12.5508 9.05756 -55.4115 144.683
lfemur -42.438 -6.30761 8.64818
ltibia 71.9831 0 0
lfoot -0.140608 -4.94554 0
ltoes 27.232 0 0
rfemur -14.69 1.70241 9.88626
rtibia 42.7064 0 0
rfoot 0.233045 -16.2059 0
rtoes 8.9659 0 0
lowerback 4.58547 1.57469 1.39432
upperback -0.848851 2.00004 -1.47323
thorax -3.18825 1.01461 -2.23273
lowerneck -6.40129 -3.64181 0.148491
upperneck -1.49776 -4.87543 3.19935
head 0.726886 -2.42911 0.875831
lclavicle -4.24496e-14 -4.67344e-15 0
lhumerus -13.1714 -12.8826 37.903
lradius 54.6348 0 0
lwrist 26.1076 0 0
lhand -20.3736 -0.967951 0
lfingers 7.12502 0 0
lthumb 6.0236 29.3688 0
rclavicle -4.24496e-14 -4.67344e-15 0
rhumerus -24.746 13.2329 -54.7865
rradius 83.3583 0 0
rwrist -1.04391 0 0
rhand -27.1486 -37.2071 0
rfingers 7.12502 0 0
rthumb -0.56299 -787.067 0
751
root 3.95556 19.7027 12.7141 8.98191 -54.1986 148.921
lfemur -42.5013 -6.2154 8.38627
ltibia 71.2357 0 0
lfoot -0.357518 -4.85045 0
ltoes 26.9996 0 0
rfemur -14.4317 1.74143 10.1624
rtibia 42.3683 0 0
rfoot -0.312195 -16.0796 0
rtoes 8.29517 0 0
lowerback 4.5364 1.6579 1.48584
upperback -0.831107 2.11561 -1.45615
thorax -3.13292 1.0719 -2.27014
lowerneck -6.39321 -3.59885 0.201532
upperneck -1.52202 -4.81997 3.15574
head 0.713715 -2.40201 0.85521
lclavicle -4.34831e-14 -4.79603e-15 0
lhumerus -13.9731 -12.7008 38.9057
lradius 54.6912 0 0
lwrist 26.0465 0 0
lhand -20.3472 -0.906154 0
lfingers 7.12502 0 0
lthumb 6.05049 29.4428 0
rclavicle -4.34831e-14 -4.79603e-15 0
rhumerus -24.8848 13.9204 -55.964
rradius 82.9274 0 0
rwrist -0.944109 0 0
rhand -26.9512 -37.0715 0
rfingers 7.12502 0 0
rthumb -0.372392 -786.931 0
752
root 3.90662 19.6458 12.8775 8.905 -52.9715 153.174
lfemur -42.5627 -6.12032 8.12096
ltibia 70.4826 0 0
lfoot -0.577564 -4.75363 0
ltoes 26.7646 0 0
rfemur -14.1748 1.77915 10.4404
rtibia 42.0299 0 0
rfoot -0.859008 -15.9502 0
rtoes 7.62121 0 0
lowerback 4.48701 1.74113 1.57719
upperback -0.813178 2.23122 -1.4389
thorax -3.07717 1.12922 -2.30727
lowerneck -6.38519 -3.55621 0.254639
upperneck -1.54524 -4.76499 3.11219
head 0.700887 -2.37512 0.834528
lclavicle -4.45204e-14 -4.9189e-15 0
lhumerus -14.7798 -12.5205 39.9178
lradius 54.7481 0 0
lwrist 25.9846 0 0
lhand -20.3186 -0.843527 0
lfingers 7.12502 0 0
lthumb 6.07936 29.5174 0
rclavicle -4.45204e-14 -4.9189e-15 0
rhumerus -25.0219 14.6107 -57.1489
rradius 82.4982 0 0
rwrist -0.847529 0 0
rhand -26.7524 -36.9337 0
rfingers 7.12502 0 0
rthumb -0.180369 -786.792 0
753
root 3.85758 19.5884 13.0412 8.82689 -51.7312 157.439
lfemur -42.6224 -6.02246 7.85247
ltibia 69.7244 0 0
lfoot -0.800553 -4.65524 0
ltoes 26.5269 0 0
rfemur -13.9192 1.81558 10.7199
rtibia 41.6912 0 0
rfoot -1.40704 -15.8178 0
rtoes 6.94453 0 0
lowerback 4.43732 1.82434 1.6683
upperback -0.795077 2.3468 -1.42148
thorax -3.02104 1.18651 -2.34413
lowerneck -6.37723 -3.5139 0.307776
upperneck -1.56743 -4.71053 3.06871
head 0.688403 -2.34844 0.813799
lclavicle -4.55609e-14 -5.04192e-15 0
lhumerus -15.591 -12.3418 40.9388
lradius 54.8054 0 0
lwrist 25.9218 0 0
lhand -20.288 -0.780081 0
lfingers 7.12502 0 0
lthumb 6.11025 29.5924 0
rclavicle -4.55609e-14 -5.04192e-15 0
rhumerus -25.1576 15.3034 -58.3407
rradius 82.0708 0 0
rwrist -0.754112 0 0
rhand -26.5522 -36.7938 0
rfingers 7.12502 0 0
rthumb 0.0129968 -786.651 0
754
root 3.80847 19.5306 13.2051 8.74764 -50.4786 161.714
lfemur -42.6802 -5.92192 7.58101
ltibia 68.9615 0 0
lfoot -1.02629 -4.55544 0
ltoes 26.2869 0 0
rfemur -13.6651 1.85072 11.0007
rtibia 41.3526 0 0
rfoot -1.95595 -15.6826 0
rtoes 6.26565 0 0
lowerback 4.38737 1.90746 1.75914
upperback -0.776817 2.46228 -1.40393
thorax -2.96457 1.24376 -2.38069
lowerneck -6.36934 -3.47195 0.360909
upperneck -1.58861 -4.6566 3.02532
head 0.67626 -2.322 0.793039
lclavicle -4.66037e-14 -5.16495e-15 0
lhumerus -16.4062 -12.1648 41.968
lradius 54.863 0 0
lwrist 25.8582 0 0
lhand -20.2551 -0.715827 0
lfingers 7.12502 0 0
lthumb 6.14324 29.6678 0
rclavicle -4.66037e-14 -5.16495e-15 0
rhumerus -25.2918 15.998 -59.5385
rradius 81.6455 0 0
rwrist -0.663799 0 0
rhand -26.3506 -36.6518 0
rfingers 7.12502 0 0
rthumb 0.207623 -786.509 0
755
root 3.75932 19.4723 13.3691 8.66731 -49.2147 165.998
lfemur -42.7361 -5.8188 7.30677
ltibia 68.1945 0 0
lfoot -1.25458 -4.45438 0
ltoes 26.0445 0 0
rfemur -13.4125 1.88456 11.2825
rtibia 41.0142 0 0
rfoot -2.50538 -15.5448 0
rtoes 5.58508 0 0
lowerback 4.33717 1.99047 1.84965
upperback -0.758412 2.57761 -1.38627
thorax -2.90779 1.30093 -2.41695
lowerneck -6.36151 -3.43037 0.414001
upperneck -1.60878 -4.60322 2.98206
head 0.664461 -2.2958 0.772262
lclavicle -4.76482e-14 -5.28786e-15 0
lhumerus -17.225 -11.9896 43.0048
lradius 54.9209 0 0
lwrist 25.7937 0 0
lhand -20.22 -0.650776 0
lfingers 7.12502 0 0
lthumb 6.17838 29.7436 0
rclavicle -4.76482e-14 -5.28786e-15 0
rhumerus -25.4246 16.6942 -60.7416
rradius 81.2226 0 0
rwrist -0.576531 0 0
rhand -26.1479 -36.5079 0
rfingers 7.12502 0 0
rthumb 0.403428 -786.364 0
756
root 3.71016 19.4137 13.5332 8.58597 -47.9403 170.288
lfemur -42.7901 -5.71317 7.02997
ltibia 67.4238 0 0
lfoot -1.48523 -4.3522 0
ltoes 25.8 0 0
rfemur -13.1616 1.9171 11.565
rtibia 40.6763 0 0
rfoot -3.05497 -15.4047 0
rtoes 4.90332 0 0
lowerback 4.28677 2.07331 1.93978
upperback -0.739875 2.69272 -1.36851
thorax -2.85074 1.35799 -2.45291
lowerneck -6.35375 -3.38918 0.467017
upperneck -1.62796 -4.55042 2.93895
head 0.653003 -2.26985 0.751483
lclavicle -4.86934e-14 -5.4105e-15 0
lhumerus -18.0469 -11.8163 44.0484
lradius 54.979 0 0
lwrist 25.7285 0 0
lhand -20.1825 -0.584938 0
lfingers 7.12502 0 0
lthumb 6.21571 29.8197 0
rclavicle -4.86934e-14 -5.4105e-15 0
rhumerus -25.5561 17.3916 -61.9494
rradius 80.8023 0 0
rwrist -0.492249 0 0
rhand -25.944 -36.3621 0
rfingers 7.12502 0 0
rthumb 0.600328 -786.217 0
757
root 3.661 19.3547 13.6975 8.50366 -46.6565 174.583
lfemur -42.8422 -5.60514 6.75083
ltibia 66.65 0 0
lfoot -1.71805 -4.24906 0
ltoes 25.5534 0 0
rfemur -12.9124 1.94834 11.8481
rtibia 40.339 0 0
rfoot -3.60437 -15.2624 0
rtoes 4.22089 0 0
lowerback 4.23618 2.15593 2.02948
upperback -0.72122 2.80753 -1.35068
thorax -2.79346 1.4149 -2.48855
lowerneck -6.34607 -3.3484 0.519923
upperneck -1.64615 -4.49822 2.89602
head 0.641888 -2.24416 0.730718
lclavicle -4.97387e-14 -5.53275e-15 0
lhumerus -18.8714 -11.645 45.0984
lradius 55.0375 0 0
lwrist 25.6626 0 0
lhand -20.1427 -0.518326 0
lfingers 7.12502 0 0
lthumb 6.25531 29.8962 0
rclavicle -4.97387e-14 -5.53275e-15 0
rhumerus -25.6864 18.0897 -63.1612
rradius 80.3849 0 0
rwrist -0.410893 0 0
rhand -25.7391 -36.2144 0
rfingers 7.12502 0 0
rthumb 0.798241 -786.069 0
758
root 3.61188 19.2954 13.8618 8.42045 -45.364 178.88
lfemur -42.8924 -5.49479 6.46953
ltibia 65.8736 0 0
lfoot -1.95285 -4.14512 0
ltoes 25.305 0 0
rfemur -12.665 1.97829 12.1314
rtibia 40.0026 0 0
rfoot -4.15324 -15.1182 0
rtoes 3.53829 0 0
lowerback 4.18544 2.23829 2.11869
upperback -0.702458 2.92199 -1.33279
thorax -2.73599 1.47164 -2.52386
lowerneck -6.33846 -3.30804 0.572683
upperneck -1.66337 -4.44663 2.85329
head 0.631115 -2.21875 0.709981
lclavicle -5.07833e-14 -5.65445e-15 0
lhumerus -19.6981 -11.4758 46.154
lradius 55.0961 0 0
lwrist 25.5958 0 0
lhand -20.1004 -0.450949 0
lfingers 7.12502 0 0
lthumb 6.29721 29.9729 0
rclavicle -5.07833e-14 -5.65445e-15 0
rhumerus -25.8155 18.7881 -64.3762
rradius 79.9706 0 0
rwrist -0.332405 0 0
rhand -25.5332 -36.065 0
rfingers 7.12502 0 0
rthumb 0.997085 -785.919 0
